<?xml version="1.0" encoding="UTF-8" standalone="no"?><!DOCTYPE svg PUBLIC "-//W3C//DTD SVG 1.1//EN" "http://www.w3.org/Graphics/SVG/1.1/DTD/svg11.dtd"><svg width="100%" height="100%" viewBox="0 0 2953 2953" version="1.1" xmlns="http://www.w3.org/2000/svg" xmlns:xlink="http://www.w3.org/1999/xlink" xml:space="preserve" xmlns:serif="http://www.serif.com/" style="fill-rule:evenodd;clip-rule:evenodd;stroke-linejoin:round;stroke-miterlimit:1.5;"><g id="J-Church" serif:id="J Church"><path id="J-Church---modified" serif:id="J Church - modified" d="M1806.403,1419.895l0,760.395c0,19.37 -7.171,38.055 -20.13,52.451c-26.567,29.514 -70.008,77.775 -70.008,77.775" style="fill:none;stroke:#dc8325;stroke-width:16.67px;"/><path id="J-beyond" serif:id="J beyond" d="M1814.253,511.044l-16.667,-0l0,-17.833l16.667,0l-0,17.833Zm0,35.667l-16.667,-0l0,-17.833l16.667,0l0,17.833Zm0,35.667l-16.667,-0l0,-17.833l16.667,0l0,17.833Zm0,35.666l-16.667,-0l-0,-17.833l16.667,0l0,17.833Zm0,35.666l-16.667,-0l-0,-17.833l16.667,0l0,17.833Zm0,35.667l-16.667,-0l0,-17.833l16.667,0l-0,17.833Zm0,35.667l-16.667,-0l0,-17.833l16.667,0l0,17.833Zm0,35.667l-16.667,0l-0,-17.833l16.667,0l0,17.833Zm0,35.667l-8.333,8.333l-8.333,-8.333l0,-17.833l16.667,0l-0,17.833Zm-8.333,-312.667c0,0 -8.333,-0.477 -8.333,-8.333l16.667,0l-8.333,8.333Z" style="fill:#dc8325;fill-opacity:0.42;"/><path id="J-Extension" serif:id="J Extension" d="M1814.253,1387.656l0,16.861l-16.667,0l0,-16.861l16.667,-0Zm0,-33.722l0,16.861l-16.667,0l0,-16.861l16.667,-0Zm0,-33.722l0,16.861l-16.667,0l0,-16.861l16.667,-0Zm0,-33.722l-0,16.861l-16.667,0l0,-16.861l16.667,-0Zm0,-33.723l0,16.861l-16.667,0l0,-16.861l16.667,-0Zm0,-33.722l0,16.861l-16.667,0l-0,-16.861l16.667,-0Zm0,-33.722l0,16.862l-16.667,0l0,-16.862l16.667,-0Zm0,-33.722l0,16.861l-16.667,0l0,-16.861l16.667,-0Zm-0,-33.722l0,16.861l-16.667,0l-0,-16.861l16.667,-0Zm0,-33.723l0,16.861l-16.667,-0l0,-16.861l16.667,-0Zm0,-33.722l0,16.861l-16.667,0l-0,-16.861l16.667,-0Zm0,-33.722l-0,16.86l-16.667,0l0,-16.86l16.667,-0Zm0,-33.722l0,16.861l-16.667,0l0,-16.861l16.667,-0Zm0,-33.722l0,16.861l-16.667,0l0,-16.861l16.667,-0Zm0,-33.722l0,16.861l-16.667,0l-0,-16.861l16.667,-0Zm0,-33.722l0,16.861l-16.667,0l0,-16.861l16.667,-0Zm0,-33.723l-0,16.861l-16.667,0l0,-16.861l16.667,-0Zm-16.667,-33.722c0,7.856 8.333,8.333 8.333,8.333l8.333,-8.333l0,16.861l-16.667,0l0,-16.861Zm8.333,615.333l-8.333,-8.333l16.667,-0l-8.333,8.333Z" style="fill:#dc8325;"/><g id="J-Titles" serif:id="J Titles"><g transform="matrix(0.707107,0.707107,-0.707107,0.707107,-798.970296,-1236.012663)"><g transform="matrix(29.166667,0,0,29.166667,3359.63396,-284.394839)"></g><text x="3227.188px" y="-284.395px" style="font-family:'Futura-Medium', 'Futura', sans-serif;font-weight:500;font-size:29.167px;fill:#dc8325;">McAllist<tspan x="3332.589px 3348.725px " y="-284.395px -284.395px ">er</tspan></text></g><g transform="matrix(0.707107,0.707107,-0.707107,0.707107,-722.18855,-1203.380195)"><g transform="matrix(29.166667,0,0,29.166667,3358.63396,-175.394839)"></g><text x="3271.063px" y="-175.395px" style="font-family:'Futura-Medium', 'Futura', sans-serif;font-weight:500;font-size:29.167px;fill:#dc8325;">Haight</text></g><g transform="matrix(29.166667,0,0,29.166667,2018.403812,1480.931908)"></g><text x="1827.097px" y="1480.932px" style="font-family:'Futura-Medium', 'Futura', sans-serif;font-weight:500;font-size:29.167px;fill:#dc8325;">Chur<tspan x="1890.073px 1904.728px 1920.721px " y="1480.932px 1480.932px 1480.932px ">ch </tspan>&amp; 1<tspan x="1975.85px 1993.851px 2002.411px " y="1480.932px 1480.932px 1480.932px ">8th</tspan></text><g transform="matrix(29.166667,0,0,29.166667,2020.397627,1763.931908)"></g><text x="1827.097px" y="1763.932px" style="font-family:'Futura-Medium', 'Futura', sans-serif;font-weight:500;font-size:29.167px;fill:#dc8325;">Chur<tspan x="1890.073px 1904.728px 1920.721px " y="1763.932px 1763.932px 1763.932px ">ch </tspan>&amp; 2<tspan x="1977.844px 1995.845px 2004.404px " y="1763.932px 1763.932px 1763.932px ">4th</tspan></text><g transform="matrix(29.166667,0,0,29.166667,2020.597009,1927.931908)"></g><text x="1827.097px" y="1927.932px" style="font-family:'Futura-Medium', 'Futura', sans-serif;font-weight:500;font-size:29.167px;fill:#dc8325;">Chur<tspan x="1890.073px 1904.728px 1920.721px " y="1927.932px 1927.932px 1927.932px ">ch </tspan>&amp; 30t<tspan x="2004.604px " y="1927.932px ">h</tspan></text><g transform="matrix(29.166667,0,0,29.166667,1786.416426,2053.931908)"></g><text x="1530.097px" y="2053.932px" style="font-family:'Futura-Medium', 'Futura', sans-serif;font-weight:500;font-size:29.167px;fill:#dc8325;">San Jose &amp; R<tspan x="1703.431px 1720.92px " y="2053.932px 2053.932px ">an</tspan>dall</text></g><g id="J-Dots" serif:id="J Dots"><circle cx="1806.42" cy="1053.878" r="11.5" style="fill:#fff;stroke:#dc8325;stroke-width:6.25px;stroke-linecap:round;"/><circle cx="1806.42" cy="1470.878" r="11.5" style="fill:#fff;stroke:#dc8325;stroke-width:6.25px;stroke-linecap:round;"/><circle cx="1806.42" cy="1753.878" r="11.5" style="fill:#fff;stroke:#dc8325;stroke-width:6.25px;stroke-linecap:round;"/><circle cx="1806.42" cy="1916.878" r="11.5" style="fill:#fff;stroke:#dc8325;stroke-width:6.25px;stroke-linecap:round;"/><circle cx="1806.42" cy="2041.878" r="11.5" style="fill:#fff;stroke:#dc8325;stroke-width:6.25px;stroke-linecap:round;"/><circle cx="1806.42" cy="942.878" r="11.5" style="fill:#fff;stroke:#dc8325;stroke-width:6.25px;stroke-linecap:round;"/></g><g id="J-Inaccesible" serif:id="J Inaccesible"><circle cx="1806.42" cy="1582.878" r="7.5" style="fill:#fff;"/><circle cx="1806.42" cy="1527.878" r="7.5" style="fill:#fff;"/><circle cx="1806.42" cy="1691.878" r="7.5" style="fill:#fff;"/><circle cx="1806.42" cy="1636.878" r="7.5" style="fill:#fff;"/><circle cx="1806.42" cy="2171.878" r="7.5" style="fill:#fff;"/><circle cx="1806.42" cy="2116.878" r="7.5" style="fill:#fff;"/><circle cx="1749.42" cy="2271.878" r="7.5" style="fill:#fff;"/><circle cx="1787.42" cy="2229.878" r="7.5" style="fill:#fff;"/><circle cx="1806.42" cy="1866.878" r="7.5" style="fill:#fff;"/><circle cx="1806.42" cy="1811.878" r="7.5" style="fill:#fff;"/><circle cx="1806.42" cy="1983.878" r="7.5" style="fill:#fff;"/></g></g><g id="BART"><path id="BART1" serif:id="BART" d="M2541.323,709.491l6.629,-33.146l-33.146,6.629" style="fill:none;stroke:#1a73cb;stroke-width:12.5px;stroke-linecap:round;stroke-linejoin:miter;stroke-miterlimit:10;"/><path d="M1022.67,2765.986l-18.75,28.125l-18.75,-28.125" style="fill:none;stroke:#1a73cb;stroke-width:12.5px;stroke-linecap:round;stroke-linejoin:miter;stroke-miterlimit:10;"/><path d="M2547.952,676.345c-54.054,54.054 -368.028,368.028 -473.789,473.789c-9.219,9.219 -14.398,21.723 -14.398,34.761c-0,13.038 5.179,25.542 14.398,34.761c5.353,5.353 10.818,10.818 15.989,15.989c17.737,17.737 27.744,41.765 27.841,66.848c0.465,120.097 1.868,482.49 2.342,604.946c0.101,26.204 -10.25,51.368 -28.76,69.916c-80.843,81.008 -309.913,310.545 -411.693,412.533c-31.881,31.946 -75.16,49.899 -120.293,49.899l-432.612,0c-32.637,0 -63.937,12.965 -87.015,36.043c-23.078,23.078 -36.043,54.378 -36.043,87.015c-0,87.894 -0,196.491 -0,231.266" style="fill:none;stroke:#1a73cb;stroke-width:12.5px;stroke-linecap:round;"/><circle cx="2118.42" cy="1353.878" r="11.5" style="fill:#fff;stroke:#1a73cb;stroke-width:6.25px;stroke-linecap:round;"/><circle cx="2120.42" cy="1758.878" r="11.5" style="fill:#fff;stroke:#1a73cb;stroke-width:6.25px;stroke-linecap:round;"/><circle cx="1914.42" cy="2156.878" r="11.5" style="fill:#fff;stroke:#1a73cb;stroke-width:6.25px;stroke-linecap:round;"/></g><g id="Caltrain"><path id="Caltrain1" serif:id="Caltrain" d="M2537.545,2782.584l9.375,9.375l9.375,-9.375" style="fill:none;stroke:#ff3f00;stroke-width:6.25px;stroke-linecap:round;stroke-linejoin:miter;stroke-miterlimit:10;"/><path d="M2546.92,2791.959l-0,-405.412c-0,-56.979 -46.19,-103.169 -103.169,-103.169l-0.001,0c-23.294,0 -45.634,-9.253 -62.105,-25.725c-16.471,-16.471 -25.725,-38.811 -25.725,-62.105c0,-234.07 0,-855.17 0,-855.17l0,1c0,0 -84.931,-85.381 -140.765,-141.512c-26.367,-26.506 -26.31,-69.351 0.127,-95.788c36.354,-36.354 80.156,-80.156 80.156,-80.156" style="fill:none;stroke:#ff3f00;stroke-width:6.25px;stroke-linecap:round;"/><circle cx="2546.42" cy="2452.878" r="11.5" style="fill:#fff;stroke:#ff3f00;stroke-width:6.25px;stroke-linecap:round;"/><circle cx="2356.42" cy="1674.878" r="11.5" style="fill:#fff;stroke:#ff3f00;stroke-width:6.25px;stroke-linecap:round;"/></g><g id="N-Judah" serif:id="N Judah"><path id="N-Judah1" serif:id="N Judah" d="M2414.683,1336.614c0,0 56.669,-56.669 114.3,-114.3c31.734,-31.734 49.416,-74.869 49.085,-119.747c-0.33,-44.877 -18.645,-87.748 -50.842,-119.011c-65.012,-63.126 -140.496,-136.42 -184.776,-179.416c-21.026,-20.416 -54.547,-20.169 -75.27,0.554c-79.144,79.144 -261.927,261.927 -329.145,329.145c-16.264,16.264 -38.322,25.401 -61.322,25.401l-1609.793,-0" style="fill:none;stroke:#004a79;stroke-width:16.67px;stroke-linecap:round;"/><g id="N-Dots" serif:id="N Dots"><circle cx="2431.42" cy="891.878" r="11.5" style="fill:#fff;stroke:#004a79;stroke-width:6.25px;stroke-linecap:round;"/><circle cx="2546.42" cy="1010.878" r="11.5" style="fill:#fff;stroke:#004a79;stroke-width:6.25px;stroke-linecap:round;"/><circle cx="1754.42" cy="1159.878" r="11.5" style="fill:#fff;stroke:#004a79;stroke-width:6.25px;stroke-linecap:round;"/><circle cx="1610.42" cy="1160.878" r="11.5" style="fill:#fff;stroke:#004a79;stroke-width:6.25px;stroke-linecap:round;"/><circle cx="1681.42" cy="1159.878" r="11.5" style="fill:#fff;stroke:#004a79;stroke-width:6.25px;stroke-linecap:round;"/><circle cx="1364.42" cy="1159.878" r="11.5" style="fill:#fff;stroke:#004a79;stroke-width:6.25px;stroke-linecap:round;"/><circle cx="1426.42" cy="1159.878" r="11.5" style="fill:#fff;stroke:#004a79;stroke-width:6.25px;stroke-linecap:round;"/><circle cx="1216.42" cy="1159.878" r="11.5" style="fill:#fff;stroke:#004a79;stroke-width:6.25px;stroke-linecap:round;"/><circle cx="738.42" cy="1159.878" r="11.5" style="fill:#fff;stroke:#004a79;stroke-width:6.25px;stroke-linecap:round;"/><circle cx="2561.42" cy="1176.878" r="11.5" style="fill:#fff;stroke:#004a79;stroke-width:6.25px;stroke-linecap:round;"/><circle cx="539.42" cy="1159.878" r="11.5" style="fill:#fff;stroke:#004a79;stroke-width:6.25px;stroke-linecap:round;"/><circle cx="267.42" cy="1159.878" r="11.5" style="fill:#fff;stroke:#004a79;stroke-width:6.25px;stroke-linecap:round;"/></g><g id="Inacessible-N-Dots" serif:id="Inacessible N Dots"><circle cx="1096.42" cy="1158.878" r="7.5" style="fill:#fff;"/><circle cx="1573.42" cy="1624.878" r="7.5" style="fill:#fff;"/><circle cx="897.42" cy="1158.878" r="7.5" style="fill:#fff;"/><circle cx="812.42" cy="1158.878" r="7.5" style="fill:#fff;"/><circle cx="1160.42" cy="1158.878" r="7.5" style="fill:#fff;"/><circle cx="1023.42" cy="1158.878" r="7.5" style="fill:#fff;"/><circle cx="674.42" cy="1158.878" r="7.5" style="fill:#fff;"/><circle cx="608.42" cy="1158.878" r="7.5" style="fill:#fff;"/><circle cx="476.42" cy="1158.878" r="7.5" style="fill:#fff;"/><circle cx="407.42" cy="1158.878" r="7.5" style="fill:#fff;"/><circle cx="335.42" cy="1158.878" r="7.5" style="fill:#fff;"/><circle cx="1291.42" cy="1158.878" r="7.5" style="fill:#fff;"/><circle cx="1485.42" cy="1159.878" r="7.5" style="fill:#fff;"/><circle cx="1553.42" cy="1159.878" r="7.5" style="fill:#fff;"/></g><g id="N-Titles" serif:id="N Titles"><g transform="matrix(29.166667,0,0,29.166667,2545.720527,898.431908)"></g><text x="2453.92px" y="898.432px" style="font-family:'Futura-Medium', 'Futura', sans-serif;font-weight:500;font-size:29.167px;fill:#004a79;">F<tspan x="2468.489px 2486.02px " y="898.432px 898.432px ">ol</tspan>som</text><g transform="matrix(0.707107,0.707107,-0.707107,0.707107,-625.036747,-1165.4193)"><g transform="matrix(29.166667,0,0,29.166667,3301.27431,-39.14179)"></g><text x="3066.204px" y="-39.142px" style="font-family:'Futura-Medium', 'Futura', sans-serif;font-weight:500;font-size:29.167px;fill:#004a79;">Duboce &amp; Chur<tspan x="3270.627px 3285.281px " y="-39.142px -39.142px ">ch</tspan></text></g><g transform="matrix(0.707107,0.707107,-0.707107,0.707107,-645.539272,-1115.921826)"><g transform="matrix(29.166667,0,0,29.166667,3231.27431,-39.14179)"></g><text x="3031.337px" y="-39.142px" style="font-family:'Futura-Medium', 'Futura', sans-serif;font-weight:500;font-size:29.167px;fill:#004a79;">Duboce &amp; N<tspan x="3197.607px 3215.139px " y="-39.142px -39.142px ">oe</tspan></text></g><g transform="matrix(0.707107,0.707107,-0.707107,0.707107,-666.334691,-1065.717244)"><g transform="matrix(29.166667,0,0,29.166667,3160.27431,-39.14179)"></g><text x="3003.048px" y="-39.142px" style="font-family:'Futura-Medium', 'Futura', sans-serif;font-weight:500;font-size:29.167px;fill:#004a79;">Car<tspan x="3052.323px 3059.587px " y="-39.142px -39.142px ">l </tspan>&amp; Cole</text></g><g transform="matrix(0.707107,0.707107,-0.707107,0.707107,-720.227043,-935.609596)"><g transform="matrix(29.166667,0,0,29.166667,2976.27431,-39.14179)"></g><text x="2764.773px" y="-39.142px" style="font-family:'Futura-Medium', 'Futura', sans-serif;font-weight:500;font-size:29.167px;fill:#004a79;">UCSF P<tspan x="2862.556px 2880.044px 2891.395px 2907.388px " y="-39.142px -39.142px -39.142px -39.142px ">arna</tspan>ssus</text></g><g transform="matrix(0.707107,0.707107,-0.707107,0.707107,-738.679316,-891.061869)"><g transform="matrix(29.166667,0,0,29.166667,2913.27431,-39.14179)"></g><text x="2722.153px" y="-39.142px" style="font-family:'Futura-Medium', 'Futura', sans-serif;font-weight:500;font-size:29.167px;fill:#004a79;">Ir<tspan x="2742.917px 2757.572px " y="-39.142px -39.142px ">vi</tspan>ng &amp; 5/6t<tspan x="2897.281px " y="-39.142px ">h</tspan></text></g><g transform="matrix(0.707107,0.707107,-0.707107,0.707107,-782.027512,-786.410066)"><g transform="matrix(29.166667,0,0,29.166667,2765.27431,-39.14179)"></g><text x="2604.573px" y="-39.142px" style="font-family:'Futura-Medium', 'Futura', sans-serif;font-weight:500;font-size:29.167px;fill:#004a79;">Judah &amp; 9t<tspan x="2749.281px " y="-39.142px ">h</tspan></text></g><g transform="matrix(0.707107,0.707107,-0.707107,0.707107,-921.444684,-449.827238)"><g transform="matrix(29.166667,0,0,29.166667,2289.27431,-39.14179)"></g><text x="2110.572px" y="-39.142px" style="font-family:'Futura-Medium', 'Futura', sans-serif;font-weight:500;font-size:29.167px;fill:#004a79;">Judah &amp; 28t<tspan x="2273.281px " y="-39.142px ">h</tspan></text></g><g transform="matrix(0.707107,0.707107,-0.707107,0.707107,-978.851755,-311.234309)"><g transform="matrix(29.166667,0,0,29.166667,2093.27431,-39.14179)"></g><text x="1890.033px" y="-39.142px" style="font-family:'Futura-Medium', 'Futura', sans-serif;font-weight:500;font-size:29.167px;fill:#004a79;">Judah &amp; Sunse<tspan x="2085.299px " y="-39.142px ">t</tspan></text></g><g transform="matrix(0.707107,0.707107,-0.707107,0.707107,-1060.861856,-113.24441)"><g transform="matrix(29.166667,0,0,29.166667,1813.27431,-39.14179)"></g><text x="1633.176px" y="-39.142px" style="font-family:'Futura-Medium', 'Futura', sans-serif;font-weight:500;font-size:29.167px;fill:#004a79;">Ocean Beac<tspan x="1797.281px " y="-39.142px ">h</tspan></text></g><g transform="matrix(29.166667,0,0,29.166667,2678.832669,1018.431908)"></g><text x="2567.92px" y="1018.432px" style="font-family:'Futura-Medium', 'Futura', sans-serif;font-weight:500;font-size:29.167px;fill:#004a79;">Br<tspan x="2595.876px 2613.364px " y="1018.432px 1018.432px ">an</tspan>nan</text><g transform="matrix(29.166667,0,0,29.166667,2731.765937,1187.431908)"></g><text x="2580.92px" y="1187.432px" style="font-family:'Futura-Medium', 'Futura', sans-serif;font-weight:500;font-size:29.167px;fill:#004a79;">2nd &amp; King</text></g></g><g id="L-Taravel" serif:id="L Taravel"><path id="L-Taraval" serif:id="L Taraval" d="M2260.92,847.378c0,0 -553.896,553.896 -670.954,670.954c-13.807,13.807 -32.532,21.563 -52.058,21.563l-1198.167,0c-38.561,0 -69.821,31.26 -69.821,69.821c0,48.945 0,105.662 0,105.662" style="fill:none;stroke:#752679;stroke-width:16.67px;stroke-linecap:round;"/><g id="L-Unmarked" serif:id="L Unmarked"><circle cx="270.42" cy="1618.878" r="7.5" style="fill:#fff;"/><circle cx="287.42" cy="1563.878" r="7.5" style="fill:#fff;"/><circle cx="344.42" cy="1539.878" r="7.5" style="fill:#fff;"/><circle cx="404.42" cy="1539.878" r="7.5" style="fill:#fff;"/><circle cx="518.42" cy="1539.878" r="7.5" style="fill:#fff;"/><circle cx="666.42" cy="1539.878" r="7.5" style="fill:#fff;"/><circle cx="818.42" cy="1539.878" r="7.5" style="fill:#fff;"/><circle cx="1408.42" cy="1539.878" r="7.5" style="fill:#fff;"/><path d="M270.92,1656.383l0,14.99c-0.093,0.003 -0.186,0.005 -0.28,0.005c-4.139,0 -7.5,-3.361 -7.5,-7.5c0,-4.139 3.361,-7.5 7.5,-7.5c0.094,0 0.187,0.002 0.28,0.005Z" style="fill:#fff;"/><path d="M1244.525,1540.768l-14.99,0c-0.003,-0.093 -0.005,-0.186 -0.005,-0.28c0,-4.139 3.361,-7.5 7.5,-7.5c4.139,0 7.5,3.361 7.5,7.5c0,0.094 -0.002,0.187 -0.005,0.28Z" style="fill:#fff;"/></g><g id="L-Dots" serif:id="L Dots"><circle cx="269.42" cy="1717.878" r="11.5" style="fill:#fff;stroke:#752679;stroke-width:6.25px;stroke-linecap:round;"/><circle cx="455.42" cy="1539.878" r="11.5" style="fill:#fff;stroke:#752679;stroke-width:6.25px;stroke-linecap:round;"/><circle cx="589.42" cy="1539.878" r="11.5" style="fill:#fff;stroke:#752679;stroke-width:6.25px;stroke-linecap:round;"/><circle cx="743.42" cy="1539.878" r="11.5" style="fill:#fff;stroke:#752679;stroke-width:6.25px;stroke-linecap:round;"/><circle cx="880.42" cy="1539.878" r="11.5" style="fill:#fff;stroke:#752679;stroke-width:6.25px;stroke-linecap:round;"/><path d="M1090.865,1541c-0.565,5.821 -5.477,10.378 -11.446,10.378c-5.968,0 -10.881,-4.557 -11.446,-10.378l0.455,-2.801l21.919,0l0.517,2.801Z" style="fill:#fff;stroke:#752679;stroke-width:6.25px;stroke-linecap:round;"/></g><g id="L-Taraval-Titles" serif:id="L Taraval Titles"><g transform="matrix(29.166667,0,0,29.166667,385.981977,1727.931908)"></g><text x="291.86px" y="1727.932px" style="font-family:'Futura-Medium', 'Futura', sans-serif;font-weight:500;font-size:29.167px;fill:#752679;">SF Zoo</text></g></g><g id="M-Ocean" serif:id="M Ocean"><path id="M-Ocean-View" serif:id="M Ocean View" d="M2279.92,866.378c0,0 -1094.502,1091.079 -1258.585,1254.649c-13.116,13.075 -20.505,30.821 -20.545,49.34c-0.075,35.023 -0.203,94.411 -0.291,135.457c-0.026,11.945 4.701,23.409 13.139,31.865c8.437,8.455 19.892,13.207 31.836,13.207c148.874,0 615.445,0 615.445,0" style="fill:none;stroke:#14895d;stroke-width:16.67px;stroke-linecap:round;"/><g id="M-Dots" serif:id="M Dots"><circle cx="1149.42" cy="2350.878" r="11.5" style="fill:#fff;stroke:#14895d;stroke-width:6.25px;stroke-linecap:round;"/><circle cx="1402.42" cy="2350.878" r="11.5" style="fill:#fff;stroke:#14895d;stroke-width:6.25px;stroke-linecap:round;"/></g><g id="Inaccessible-M-Dots" serif:id="Inaccessible M Dots"><circle cx="1555.42" cy="1588.878" r="7.5" style="fill:#fff;"/><circle cx="1044.42" cy="2350.878" r="7.5" style="fill:#fff;"/><circle cx="1148.42" cy="1995.878" r="7.5" style="fill:#fff;"/><circle cx="1325.42" cy="1817.878" r="7.5" style="fill:#fff;"/><circle cx="1095.42" cy="2350.878" r="7.5" style="fill:#fff;"/><circle cx="1209.42" cy="2350.878" r="7.5" style="fill:#fff;"/><circle cx="1267.42" cy="2350.878" r="7.5" style="fill:#fff;"/><circle cx="1331.42" cy="2350.878" r="7.5" style="fill:#fff;"/><circle cx="1475.42" cy="2350.878" r="7.5" style="fill:#fff;"/><circle cx="1543.42" cy="2350.878" r="7.5" style="fill:#fff;"/><circle cx="1601.42" cy="2350.878" r="7.5" style="fill:#fff;"/></g></g><g id="K-Ingleside" serif:id="K Ingleside"><path id="K-Ingleside1" serif:id="K Ingleside" d="M2297.92,884.378c0,0 -667.41,667.41 -786.46,786.46c-11.562,11.562 -18.057,27.243 -18.057,43.593l0,361.254c0,19.652 7.807,38.5 21.703,52.396c54.244,54.244 191.402,191.402 191.402,191.402" style="fill:none;stroke:#5a97ac;stroke-width:16.67px;stroke-linecap:round;"/><g id="K-Dots" serif:id="K Dots"><circle cx="1493.42" cy="1719.878" r="11.5" style="fill:#fff;stroke:#5a97ac;stroke-width:6.25px;stroke-linecap:round;"/><circle cx="1493.42" cy="2035.878" r="11.5" style="fill:#fff;stroke:#5a97ac;stroke-width:6.25px;stroke-linecap:round;"/><circle cx="1653.42" cy="2265.878" r="11.5" style="fill:#fff;stroke:#5a97ac;stroke-width:6.25px;stroke-linecap:round;"/><circle cx="1605.42" cy="2217.878" r="11.5" style="fill:#fff;stroke:#5a97ac;stroke-width:6.25px;stroke-linecap:round;"/></g><g id="K-Inaccessible" serif:id="K Inaccessible"><circle cx="1493.42" cy="1854.878" r="7.5" style="fill:#fff;"/><circle cx="1493.42" cy="1799.878" r="7.5" style="fill:#fff;"/><circle cx="1493.42" cy="1963.878" r="7.5" style="fill:#fff;"/><circle cx="1524.42" cy="2137.878" r="7.5" style="fill:#fff;"/><circle cx="1493.42" cy="1908.878" r="7.5" style="fill:#fff;"/></g><g id="K-Titles" serif:id="K Titles"><g transform="matrix(1,0,0,1,-713.859944,-1871)"><text x="2227px" y="3602.054px" style="font-family:'Futura-Medium', 'Futura', sans-serif;font-weight:500;font-size:29.167px;fill:#5a97ac;">Juniper<tspan x="2322.39px 2339.921px " y="3602.054px 3602.054px ">o </tspan>Ser<tspan x="2393.412px 2404.122px 2421.611px " y="3602.054px 3602.054px 3602.054px ">ra </tspan>&amp;</text><g transform="matrix(29.166667,0,0,29.166667,2316.579264,3640.790934)"></g><text x="2227px" y="3640.791px" style="font-family:'Futura-Medium', 'Futura', sans-serif;font-weight:500;font-size:29.167px;fill:#5a97ac;">Ocean</text></g><g transform="matrix(29.166667,0,0,29.166667,1472.477621,2043.053955)"></g><text x="1268.14px" y="2043.054px" style="font-family:'Futura-Medium', 'Futura', sans-serif;font-weight:500;font-size:29.167px;fill:#5a97ac;">Dor<tspan x="1317.558px 1335.047px " y="2043.054px 2043.054px ">ad</tspan>o &amp; Jules</text><g transform="matrix(29.166667,0,0,29.166667,1575.242839,2230.053955)"></g><text x="1401.14px" y="2230.054px" style="font-family:'Futura-Medium', 'Futura', sans-serif;font-weight:500;font-size:29.167px;fill:#5a97ac;">Ocean &amp; Lee</text><g transform="matrix(29.166667,0,0,29.166667,1627.892334,2277.053955)"></g><text x="1465.14px" y="2277.054px" style="font-family:'Futura-Medium', 'Futura', sans-serif;font-weight:500;font-size:29.167px;fill:#5a97ac;">City College</text></g></g><g id="B-Geary" serif:id="B Geary"><path id="B-Geary1" serif:id="B Geary" d="M2271.478,995.373l11.587,12.123l-12.049,11.515l-11.587,-12.123l12.049,-11.515Zm-23.174,-24.247l11.587,12.123l-12.049,11.515l-11.587,-12.123l12.049,-11.515Zm-23.174,-24.247l11.587,12.123l-12.049,11.515l-11.587,-12.123l12.049,-11.515Zm-23.174,-24.247l11.587,12.124l-12.049,11.515l-11.587,-12.124l12.049,-11.515Zm-23.174,-24.247l11.587,12.124l-12.049,11.515l-11.587,-12.124l12.049,-11.515Zm-23.174,-24.247l11.587,12.123l-12.049,11.515l-11.587,-12.123l12.049,-11.515Zm-23.174,-24.247l11.587,12.124l-12.049,11.515l-11.587,-12.124l12.049,-11.515Zm-57.921,-40.265c6.005,1.464 11.833,3.545 17.391,6.206l-7.196,15.033c-4.52,-2.163 -9.259,-3.856 -14.142,-5.047l3.947,-16.193Zm-68.871,14.13l-0,-16.667l16.77,0l-0,16.667l-16.77,0Zm-33.541,-0l-0,-16.667l16.771,0l0,16.667l-16.771,-0Zm-67.08,0l-0,-16.667l16.77,0l0,16.667l-16.77,0Zm-33.541,-0l-0,-16.667l16.77,0l0,16.667l-16.77,0Zm-33.54,0l-0,-16.667l16.77,0l0,16.667l-16.77,0Zm-33.54,0l-0,-16.667l16.77,0l0,16.667l-16.77,0Zm-33.54,0l-0,-16.667l16.77,0l0,16.667l-16.77,0Zm-33.541,-0l-0,-16.667l16.771,0l0,16.667l-16.771,-0Zm-33.541,0l-0,-16.667l16.771,0l-0,16.667l-16.771,-0Zm-33.539,0l-0,-16.667l16.769,0l-0,16.667l-16.769,0Zm-33.541,-0l-0,-16.667l16.77,0l0,16.667l-16.77,0Zm-33.54,0l-0,-16.667l16.77,0l0,16.667l-16.77,-0Zm-33.54,0l-0,-16.667l16.771,0l0,16.667l-16.771,-0Zm-33.54,0l-0,-16.667l16.77,-0l0,16.667l-16.77,0Zm-33.541,0l-0,-16.667l16.771,0l0,16.667l-16.771,0Zm-33.541,0l-0,-16.667l16.77,0l0,16.667l-16.77,0Zm-33.54,0l-0,-16.667l16.77,0l0,16.667l-16.77,0Zm-33.54,0l-0,-16.667l16.771,0l0,16.667l-16.771,0Zm-33.541,0l-0,-16.667l16.77,-0l0,16.667l-16.77,0Zm-33.539,0l-0,-16.667l16.77,0l0,16.667l-16.77,0Zm-33.54,-0l-0,-16.667l16.77,0l0,16.667l-16.77,-0Zm-33.541,0l-0,-16.667l16.77,0l0,16.667l-16.77,0Zm-33.54,-0l-0,-16.667l16.77,0l0,16.667l-16.77,-0Zm-33.54,0l-0,-16.667l16.77,0l0,16.667l-16.77,0Zm-33.54,0l0,-16.667l16.77,-0l0,16.667l-16.77,0Zm-33.541,0l-0,-16.667l16.77,-0l0,16.667l-16.77,0Zm-33.54,0l0,-16.667l16.77,0l0,16.667l-16.77,0Zm-31.742,2.36l-3.264,-16.344c5.811,-1.16 11.713,-1.952 17.674,-2.359l1.138,16.628c-5.244,0.359 -10.437,1.055 -15.548,2.076Zm-29.661,10.022l-7.318,-14.974c5.345,-2.612 10.853,-4.878 16.49,-6.782l5.335,15.79c-4.959,1.676 -9.805,3.669 -14.508,5.967Zm-26.131,17.243l-10.89,-12.617c4.523,-3.904 9.274,-7.494 14.22,-10.758l9.179,13.911c-4.351,2.871 -8.531,6.03 -12.509,9.464Zm-20.88,23.329l-13.743,-9.428c3.351,-4.885 7.027,-9.571 11.012,-14.024l12.419,11.115c-3.506,3.917 -6.74,8.04 -9.688,12.337Zm-14.25,27.877l-15.691,-5.619c2.005,-5.6 4.369,-11.067 7.078,-16.365l14.84,7.586c-2.383,4.662 -4.463,9.471 -6.227,14.398Zm-6.683,30.586l-16.605,-1.437c0.515,-5.951 1.412,-11.838 2.677,-17.629l16.283,3.558c-1.113,5.094 -1.902,10.273 -2.355,15.508Zm-0.454,32.809l-16.667,0l0,-16.77l16.667,0l0,16.77Zm-0,33.54l-16.667,0l0,-16.771l16.667,0l-0,16.771Zm0,67.081l-16.667,0l0,-16.771l16.667,0l0,16.771Zm0,67.081l-16.667,0l0,-16.771l16.667,0l0,16.771Zm-0,33.539l-16.667,0l0,-16.77l16.667,0l0,16.77Zm0,100.62l-16.667,0l0,-16.771l16.667,0l0,16.771Zm0,33.541l-16.667,0l0,-16.769l16.667,0l0,16.769Zm-0,100.62l-16.667,0l-0,-16.771l16.667,0l0,16.771Zm0,33.542l-16.667,0l0,-16.771l16.667,0l0,16.771Zm-0,134.162l-16.667,0l0,-16.77l16.667,0l0,16.77Zm0,67.08l-16.667,0l0,-16.771l16.667,0l0,16.771Zm0,100.621l-16.667,0l0,-16.77l16.667,0l0,16.77Zm0,33.539l-16.667,0l0,-16.769l16.667,0l0,16.769Zm0,33.54l-16.667,0l-0,-16.771l16.667,0l0,16.771Zm0,33.541l-16.667,0l-0,-16.771l16.667,0l0,16.771Zm0,33.541l-16.667,0l-0,-16.77l16.667,0l0,16.77Zm-0,33.54l-16.667,-0l0,-16.769l16.667,0l0,16.769Zm0,134.161l-16.667,0l0,-16.77l16.667,0l0,16.77Zm0,67.08l-16.667,0l0,-16.769l16.667,0l0,16.769Zm-0,33.538l-16.667,0l0,-16.77l16.667,0l0,16.77Zm0,33.54l-16.667,0l0,-16.77l16.667,0l0,16.77Zm0,33.541l-16.667,0l0,-16.77l16.667,0l0,16.77Zm0,33.542l-16.667,0l-0,-16.77l16.667,0l0,16.77Zm-0,33.539l-16.667,0l0,-16.77l16.667,0l0,16.77Zm0,33.541l-16.667,0l-0,-16.77l16.667,0l0,16.77Zm-0,33.54l-16.667,0l0,-16.77l16.667,0l0,16.77Zm-0,33.54l-16.667,0l0,-16.77l16.667,0l0,16.77Zm0,33.54l-16.667,0l0,-16.77l16.667,0l0,16.77Zm0,33.541l-16.667,0l-0,-16.77l16.667,0l0,16.77Zm-0,33.54l-16.667,0l0,-16.77l16.667,0l0,16.77Zm0,33.541l-16.667,0l-0,-16.77l16.667,0l0,16.77Zm0,33.54l-8.333,8.334l-8.333,-8.334l0,-16.77l16.667,0l0,16.77Zm1318.375,-1510.666l-6.024,-2.576l12.049,-11.515l-6.024,14.091Zm-167.781,-195.944l-12.049,11.515l-2.971,-3.109c-2.594,-2.714 -5.377,-5.205 -8.319,-7.46l10.137,-13.229c3.618,2.772 7.041,5.836 10.231,9.173l2.971,3.109Zm-64.631,-30.633l-0.527,16.658c-0.764,-0.024 -1.53,-0.036 -2.297,-0.036l-14.21,-0l-0,-16.667l14.21,0c0.943,-0 1.884,0.015 2.824,0.045Zm-100.883,-0.045l0,16.667l-16.77,0l0,-16.667l16.77,0Zm-1001.747,211.202l16.667,0l-0,16.769l-16.667,-0l0,-16.769Zm-0,67.081l16.667,0l0,16.769l-16.667,0l-0,-16.769Zm0,100.621l16.667,0l0,16.769l-16.667,0l0,-16.769Zm0,33.54l16.667,0l0,16.769l-16.667,0l0,-16.769Zm0,100.622l16.667,0l0,16.77l-16.667,0l-0,-16.77Zm-0,33.539l16.667,0l0,16.769l-16.667,0l0,-16.769Zm0,100.621l16.667,0l0,16.77l-16.667,0l-0,-16.77Zm0,33.54l16.667,0l0,16.77l-16.667,0l-0,-16.77Zm-0,33.542l16.667,0l0,16.77l-16.667,0l0,-16.77Zm0,67.082l16.667,0l0,16.77l-16.667,0l0,-16.77Zm-0,67.08l16.667,0l0,16.77l-16.667,0l0,-16.77Zm0,33.539l16.667,0l0,16.771l-16.667,0l0,-16.771Zm0,234.782l16.667,0l0,16.77l-16.667,0l-0,-16.77Zm0,33.541l16.667,0l0,16.77l-16.667,0l0,-16.77Zm-0,33.54l16.667,0l0,16.77l-16.667,0l0,-16.77Zm0,67.081l16.667,0l0,16.77l-16.667,0l-0,-16.77Z" style="fill:#abd380;"/><g id="Geary-Dots" serif:id="Geary Dots"><circle cx="962.42" cy="2373.878" r="11.5" style="fill:#fff;stroke:#abd380;stroke-width:6.25px;stroke-linecap:round;"/><circle cx="962.42" cy="2458.878" r="11.5" style="fill:#fff;stroke:#abd380;stroke-width:6.25px;stroke-linecap:round;"/><circle cx="1243.42" cy="814.878" r="11.5" style="fill:#fff;stroke:#abd380;stroke-width:6.25px;stroke-linecap:round;"/><circle cx="1398.42" cy="813.878" r="11.5" style="fill:#fff;stroke:#abd380;stroke-width:6.25px;stroke-linecap:round;"/><circle cx="1591.42" cy="813.878" r="11.5" style="fill:#fff;stroke:#abd380;stroke-width:6.25px;stroke-linecap:round;"/><circle cx="1937.42" cy="813.878" r="11.5" style="fill:#fff;stroke:#abd380;stroke-width:6.25px;stroke-linecap:round;"/><circle cx="2008.42" cy="813.878" r="11.5" style="fill:#fff;stroke:#abd380;stroke-width:6.25px;stroke-linecap:round;"/><circle cx="1070.42" cy="815.878" r="11.5" style="fill:#fff;stroke:#abd380;stroke-width:6.25px;stroke-linecap:round;"/><circle cx="961.42" cy="980.878" r="11.5" style="fill:#fff;stroke:#abd380;stroke-width:6.25px;stroke-linecap:round;"/><circle cx="962.42" cy="1279.878" r="11.5" style="fill:#fff;stroke:#abd380;stroke-width:6.25px;stroke-linecap:round;"/><circle cx="962.42" cy="1412.878" r="11.5" style="fill:#fff;stroke:#abd380;stroke-width:6.25px;stroke-linecap:round;"/><circle cx="962.42" cy="1790.878" r="11.5" style="fill:#fff;stroke:#abd380;stroke-width:6.25px;stroke-linecap:round;"/></g><g id="Geary-Titles" serif:id="Geary Titles"><g transform="matrix(0.707107,0.707107,-0.707107,0.707107,-839.235844,-1430.803031)"><g transform="matrix(29.166667,0,0,29.166667,3574.63396,-430.394839)"></g><text x="3483.744px" y="-430.395px" style="font-family:'Futura-Medium', 'Futura', sans-serif;font-weight:500;font-size:29.167px;fill:#abd380;">Mason</text></g><g transform="matrix(0.707107,0.707107,-0.707107,0.707107,-853.838875,-1375.548197)"><g transform="matrix(29.166667,0,0,29.166667,3500.63396,-420.394839)"></g><text x="3375.365px" y="-420.395px" style="font-family:'Futura-Medium', 'Futura', sans-serif;font-weight:500;font-size:29.167px;fill:#abd380;">V<tspan x="3393.395px 3410.884px " y="-420.395px -420.395px ">an</tspan> N<tspan x="3460.829px 3476.965px " y="-420.395px -420.395px ">es</tspan>s</text></g><g transform="matrix(0.707107,0.707107,-0.707107,0.707107,-957.008355,-1132.475037)"><g transform="matrix(29.166667,0,0,29.166667,3155.63396,-423.394839)"></g><text x="3014.144px" y="-423.395px" style="font-family:'Futura-Medium', 'Futura', sans-serif;font-weight:500;font-size:29.167px;fill:#abd380;">Divisader<tspan x="3138.103px " y="-423.395px ">o</tspan></text></g><g transform="matrix(0.707107,0.707107,-0.707107,0.707107,-1012.072281,-999.538962)"><text x="2822.869px" y="-423.395px" style="font-family:'Futura-Medium', 'Futura', sans-serif;font-weight:500;font-size:29.167px;fill:#abd380;">Anza V<tspan x="2922.816px 2930.079px 2941.914px 2950.145px " y="-423.395px -423.395px -423.395px -423.395px ">ista</tspan></text></g><g transform="matrix(0.707107,0.707107,-0.707107,0.707107,-1058.642302,-887.108984)"><g transform="matrix(29.166667,0,0,29.166667,2808.63396,-423.394839)"></g><text x="2694.573px" y="-423.395px" style="font-family:'Futura-Medium', 'Futura', sans-serif;font-weight:500;font-size:29.167px;fill:#abd380;">Arguello</text></g><g transform="matrix(0.707107,0.707107,-0.707107,0.707107,-1112.534655,-757.001336)"><g transform="matrix(29.166667,0,0,29.166667,2624.63396,-423.394839)"></g><text x="2495.079px" y="-423.395px" style="font-family:'Futura-Medium', 'Futura', sans-serif;font-weight:500;font-size:29.167px;fill:#abd380;">Ric<tspan x="2534.556px 2550.549px " y="-423.395px -423.395px ">hm</tspan>ond</text></g><g transform="matrix(0.707107,0.707107,-0.707107,0.707107,-1019.302115,-628.084597)"><g transform="matrix(29.166667,0,0,29.166667,2515.63396,-246.394839)"></g><text x="2273.898px" y="-246.395px" style="font-family:'Futura-Medium', 'Futura', sans-serif;font-weight:500;font-size:29.167px;fill:#abd380;">Golden Gat<tspan x="2432.164px 2448.3px 2457.301px 2472.268px 2489.757px 2501.108px " y="-246.395px -246.395px -246.395px -246.395px -246.395px -246.395px ">e Park</tspan></text></g><g transform="matrix(0.707107,0.707107,-0.707107,0.707107,-677.584294,-595.064394)"><g transform="matrix(29.166667,0,0,29.166667,2459.957769,182.605161)"></g><text x="2347.905px" y="182.605px" style="font-family:'Futura-Medium', 'Futura', sans-serif;font-weight:500;font-size:29.167px;fill:#abd380;">N<tspan x="2372.728px 2390.26px 2401.61px 2408.873px " y="182.605px 182.605px 182.605px 182.605px ">orie</tspan>ga</text></g><g transform="matrix(0.707107,0.707107,-0.707107,0.707107,-716.953306,-502.019193)"><g transform="matrix(29.166667,0,0,29.166667,2514.63396,181.605161)"></g><text x="2395.504px" y="181.605px" style="font-family:'Futura-Medium', 'Futura', sans-serif;font-weight:500;font-size:29.167px;fill:#abd380;">Quint<tspan x="2468.947px 2486.436px 2497.145px " y="181.605px 181.605px 181.605px ">ara</tspan></text></g><g transform="matrix(0.707107,0.707107,-0.707107,0.707107,-447.764743,-393.127453)"><g transform="matrix(29.166667,0,0,29.166667,2517.784284,560.990371)"></g><text x="2435.326px" y="560.99px" style="font-family:'Futura-Medium', 'Futura', sans-serif;font-weight:500;font-size:29.167px;fill:#abd380;">Gr<tspan x="2470.545px 2487.493px " y="560.99px 560.99px ">ov</tspan>e</text></g><g transform="matrix(0.707107,0.707107,-0.707107,0.707107,-31.985956,-220.90624)"><g transform="matrix(29.166667,0,0,29.166667,2517.784284,1148.990371)"></g><text x="2307.351px" y="1148.99px" style="font-family:'Futura-Medium', 'Futura', sans-serif;font-weight:500;font-size:29.167px;fill:#abd380;">1<tspan x="2322.989px 2340.99px 2349.549px 2365.542px " y="1148.99px 1148.99px 1148.99px 1148.99px ">9th </tspan>&amp; Juniper<tspan x="2500.253px " y="1148.99px ">o</tspan></text></g><g transform="matrix(0.707107,0.707107,-0.707107,0.707107,31.653655,-194.545851)"><g transform="matrix(29.166667,0,0,29.166667,2517.784284,1238.990371)"></g><text x="2298.621px" y="1238.99px" style="font-family:'Futura-Medium', 'Futura', sans-serif;font-weight:500;font-size:29.167px;fill:#abd380;">Ar<tspan x="2330.878px 2345.533px 2361.526px " y="1238.99px 1238.99px 1238.99px ">ch </tspan>&amp; Aleman<tspan x="2501.933px " y="1238.99px ">y</tspan></text></g></g></g><g id="T-Third" serif:id="T Third"><path id="T-Third1" serif:id="T Third" d="M2052.572,758.031l0.002,186.002c0,0 331.511,327.009 420.207,414.5c13.823,13.635 21.604,32.241 21.604,51.657l0,985.189" style="fill:none;stroke:#c61a43;stroke-width:16.67px;stroke-linecap:round;"/><g id="T-Titles" serif:id="T Titles"><g transform="matrix(1,0,0,1,341.919583,-169.622047)"><text x="1961px" y="1298.054px" style="font-family:'Futura-Medium', 'Futura', sans-serif;font-weight:500;font-size:29.167px;fill:#c61a43;">Y<tspan x="1976.637px 1992.773px " y="1298.054px 1298.054px ">er</tspan>ba Buena/</text><text x="1961px" y="1331.387px" style="font-family:'Futura-Medium', 'Futura', sans-serif;font-weight:500;font-size:29.167px;fill:#c61a43;">Moscone</text></g><g transform="matrix(1,0,0,1,421.919583,-93.622047)"><text x="1961px" y="1298.054px" style="font-family:'Futura-Medium', 'Futura', sans-serif;font-weight:500;font-size:29.167px;fill:#c61a43;">4t<tspan x="1987.56px 2003.554px " y="1298.054px 1298.054px ">h </tspan>&amp;</text><g transform="matrix(29.166667,0,0,29.166667,2071.913086,1331.387288)"></g><text x="1961px" y="1331.387px" style="font-family:'Futura-Medium', 'Futura', sans-serif;font-weight:500;font-size:29.167px;fill:#c61a43;">Br<tspan x="1988.956px 2006.445px " y="1331.387px 1331.387px ">an</tspan>nan</text></g><g transform="matrix(29.166667,0,0,29.166667,2686.370348,1396.431908)"></g><text x="2513.92px" y="1396.432px" style="font-family:'Futura-Medium', 'Futura', sans-serif;font-weight:500;font-size:29.167px;fill:#c61a43;">Mission R<tspan x="2639.658px 2657.189px 2671.844px " y="1396.432px 1396.432px 1396.432px ">ock</tspan></text><g transform="matrix(29.166667,0,0,29.166667,2782.57502,1444.431908)"></g><text x="2514.92px" y="1444.432px" style="font-family:'Futura-Medium', 'Futura', sans-serif;font-weight:500;font-size:29.167px;fill:#c61a43;">UCSF/Chase Cent<tspan x="2755.53px 2771.666px " y="1444.432px 1444.432px ">er</tspan></text><g transform="matrix(29.166667,0,0,29.166667,2802.157132,1498.431908)"></g><text x="2514.92px" y="1498.432px" style="font-family:'Futura-Medium', 'Futura', sans-serif;font-weight:500;font-size:29.167px;fill:#c61a43;">UCSF Medical Cent<tspan x="2775.112px 2791.248px " y="1498.432px 1498.432px ">er</tspan></text><g transform="matrix(29.166667,0,0,29.166667,2609.953356,1560.431908)"></g><text x="2514.92px" y="1560.432px" style="font-family:'Futura-Medium', 'Futura', sans-serif;font-weight:500;font-size:29.167px;fill:#c61a43;">20t<tspan x="2559.481px 2575.475px 2584.475px 2601.978px " y="1560.432px 1560.432px 1560.432px 1560.432px ">h St</tspan></text><g transform="matrix(29.166667,0,0,29.166667,2613.599189,1622.431908)"></g><text x="2514.92px" y="1622.432px" style="font-family:'Futura-Medium', 'Futura', sans-serif;font-weight:500;font-size:29.167px;fill:#c61a43;">23r<tspan x="2561.632px 2579.12px 2588.121px 2605.624px " y="1622.432px 1622.432px 1622.432px 1622.432px ">d St</tspan></text><g transform="matrix(29.166667,0,0,29.166667,2629.535469,1686.431908)"></g><text x="2514.92px" y="1686.432px" style="font-family:'Futura-Medium', 'Futura', sans-serif;font-weight:500;font-size:29.167px;fill:#c61a43;">Mar<tspan x="2571.8px 2579.063px " y="1686.432px 1686.432px ">in</tspan> S<tspan x="2621.56px " y="1686.432px ">t</tspan></text><g transform="matrix(29.166667,0,0,29.166667,2590.883939,1746.431908)"></g><text x="2514.92px" y="1746.432px" style="font-family:'Futura-Medium', 'Futura', sans-serif;font-weight:500;font-size:29.167px;fill:#c61a43;">Ev<tspan x="2545.567px 2563.056px " y="1746.432px 1746.432px ">an</tspan>s</text><g transform="matrix(29.166667,0,0,29.166667,2698.720853,1806.431908)"></g><text x="2514.92px" y="1806.432px" style="font-family:'Futura-Medium', 'Futura', sans-serif;font-weight:500;font-size:29.167px;fill:#c61a43;">Hudson/Innes</text><g transform="matrix(29.166667,0,0,29.166667,2761.668444,1871.431908)"></g><text x="2514.92px" y="1871.432px" style="font-family:'Futura-Medium', 'Futura', sans-serif;font-weight:500;font-size:29.167px;fill:#c61a43;">Kir<tspan x="2552.859px 2567.385px 2589.431px 2606.963px " y="1871.432px 1871.432px 1871.432px 1871.432px ">kwoo</tspan>d/La Salle</text><g transform="matrix(29.166667,0,0,29.166667,2719.627428,1935.431908)"></g><text x="2514.92px" y="1935.432px" style="font-family:'Futura-Medium', 'Futura', sans-serif;font-weight:500;font-size:29.167px;fill:#c61a43;">Oakdale/P<tspan x="2661.451px 2678.939px " y="1935.432px 1935.432px ">al</tspan>ou</text><g transform="matrix(29.166667,0,0,29.166667,2715.369209,1998.431908)"></g><text x="2514.92px" y="1998.432px" style="font-family:'Futura-Medium', 'Futura', sans-serif;font-weight:500;font-size:29.167px;fill:#c61a43;">R<tspan x="2532.009px " y="1998.432px ">e</tspan>ve<tspan x="2577.938px 2588.648px 2604.784px " y="1998.432px 1998.432px 1998.432px ">re/</tspan>Shaf<tspan x="2680.093px 2688.325px 2704.46px " y="1998.432px 1998.432px 1998.432px ">ter</tspan></text><g transform="matrix(29.166667,0,0,29.166667,2627.584378,2063.431908)"></g><text x="2514.92px" y="2063.432px" style="font-family:'Futura-Medium', 'Futura', sans-serif;font-weight:500;font-size:29.167px;fill:#c61a43;">W<tspan x="2546.137px 2553.4px " y="2063.432px 2063.432px ">il</tspan>liams</text><g transform="matrix(29.166667,0,0,29.166667,2606.905667,2127.431908)"></g><text x="2514.92px" y="2127.432px" style="font-family:'Futura-Medium', 'Futura', sans-serif;font-weight:500;font-size:29.167px;fill:#c61a43;">Car<tspan x="2564.195px 2574.848px 2592.379px " y="2127.432px 2127.432px 2127.432px ">rol</tspan>l</text><g transform="matrix(29.166667,0,0,29.166667,2681.289212,2188.431908)"></g><text x="2514.92px" y="2188.432px" style="font-family:'Futura-Medium', 'Futura', sans-serif;font-weight:500;font-size:29.167px;fill:#c61a43;">Gilman/P<tspan x="2640.644px 2658.132px " y="2188.432px 2188.432px ">au</tspan>l</text><g transform="matrix(29.166667,0,0,29.166667,2631.315661,2254.431908)"></g><text x="2514.92px" y="2254.432px" style="font-family:'Futura-Medium', 'Futura', sans-serif;font-weight:500;font-size:29.167px;fill:#c61a43;">Le Cont<tspan x="2615.18px " y="2254.432px ">e</tspan></text><g transform="matrix(29.166667,0,0,29.166667,2469.249906,2328.431908)"></g><text x="2386.92px" y="2328.432px" style="font-family:'Futura-Medium', 'Futura', sans-serif;font-weight:500;font-size:29.167px;fill:#c61a43;">Ar<tspan x="2419.874px 2427.138px 2443.53px " y="2328.432px 2328.432px 2328.432px ">let</tspan>a</text><g transform="matrix(29.166667,0,0,29.166667,2468.560941,2404.431908)"></g><text x="2329.92px" y="2404.432px" style="font-family:'Futura-Medium', 'Futura', sans-serif;font-weight:500;font-size:29.167px;fill:#c61a43;">Sunn<tspan x="2394.334px 2410.185px " y="2404.432px 2404.432px ">yd</tspan>ale</text><g transform="matrix(0.707107,0.707107,-0.707107,0.707107,-595.532742,-1472.442208)"><g transform="matrix(29.166667,0,0,29.166667,3562.650087,-157.03876)"></g><text x="3440.629px" y="-157.039px" style="font-family:'Futura-Medium', 'Futura', sans-serif;font-weight:500;font-size:29.167px;fill:#c61a43;">U<tspan x="3462.375px 3478.369px " y="-157.039px -157.039px ">ni</tspan>on Sq</text></g><g transform="matrix(0.707107,0.707107,-0.707107,0.707107,-846.804387,-1474.530953)"><g transform="matrix(29.166667,0,0,29.166667,3601.219766,-461.394839)"></g><text x="3317.514px" y="-461.395px" style="font-family:'Futura-Medium', 'Futura', sans-serif;font-weight:500;font-size:29.167px;fill:#c61a43;">Chinat<tspan x="3402.864px 3419.84px 3442.412px " y="-461.395px -461.395px -461.395px ">own</tspan> - R<tspan x="3499.735px 3517.266px " y="-461.395px -461.395px ">os</tspan>e P<tspan x="3569.205px 3586.693px " y="-461.395px -461.395px ">ak</tspan></text></g></g><g id="T-Dots" serif:id="T Dots"><circle cx="2052.42" cy="758.878" r="11.5" style="fill:#fff;stroke:#c61a43;stroke-width:6.25px;stroke-linecap:round;"/><circle cx="2287.42" cy="1173.878" r="11.5" style="fill:#fff;stroke:#c61a43;stroke-width:6.25px;stroke-linecap:round;"/><circle cx="2370.42" cy="1254.878" r="11.5" style="fill:#fff;stroke:#c61a43;stroke-width:6.25px;stroke-linecap:round;"/><circle cx="2492.42" cy="1388.878" r="11.5" style="fill:#fff;stroke:#c61a43;stroke-width:6.25px;stroke-linecap:round;"/><circle cx="2494.42" cy="1433.878" r="11.5" style="fill:#fff;stroke:#c61a43;stroke-width:6.25px;stroke-linecap:round;"/><circle cx="2494.42" cy="1486.878" r="11.5" style="fill:#fff;stroke:#c61a43;stroke-width:6.25px;stroke-linecap:round;"/><circle cx="2494.42" cy="1551.878" r="11.5" style="fill:#fff;stroke:#c61a43;stroke-width:6.25px;stroke-linecap:round;"/><circle cx="2494.42" cy="1613.878" r="11.5" style="fill:#fff;stroke:#c61a43;stroke-width:6.25px;stroke-linecap:round;"/><circle cx="2494.42" cy="1676.878" r="11.5" style="fill:#fff;stroke:#c61a43;stroke-width:6.25px;stroke-linecap:round;"/><circle cx="2494.42" cy="1737.878" r="11.5" style="fill:#fff;stroke:#c61a43;stroke-width:6.25px;stroke-linecap:round;"/><circle cx="2494.42" cy="1796.878" r="11.5" style="fill:#fff;stroke:#c61a43;stroke-width:6.25px;stroke-linecap:round;"/><circle cx="2494.42" cy="1862.878" r="11.5" style="fill:#fff;stroke:#c61a43;stroke-width:6.25px;stroke-linecap:round;"/><circle cx="2494.42" cy="1925.878" r="11.5" style="fill:#fff;stroke:#c61a43;stroke-width:6.25px;stroke-linecap:round;"/><circle cx="2494.42" cy="1988.878" r="11.5" style="fill:#fff;stroke:#c61a43;stroke-width:6.25px;stroke-linecap:round;"/><circle cx="2494.42" cy="2053.878" r="11.5" style="fill:#fff;stroke:#c61a43;stroke-width:6.25px;stroke-linecap:round;"/><circle cx="2494.42" cy="2115.878" r="11.5" style="fill:#fff;stroke:#c61a43;stroke-width:6.25px;stroke-linecap:round;"/><circle cx="2494.42" cy="2179.878" r="11.5" style="fill:#fff;stroke:#c61a43;stroke-width:6.25px;stroke-linecap:round;"/><circle cx="2494.42" cy="2246.878" r="11.5" style="fill:#fff;stroke:#c61a43;stroke-width:6.25px;stroke-linecap:round;"/><circle cx="2494.42" cy="2321.878" r="11.5" style="fill:#fff;stroke:#c61a43;stroke-width:6.25px;stroke-linecap:round;"/><circle cx="2494.42" cy="2395.878" r="11.5" style="fill:#fff;stroke:#c61a43;stroke-width:6.25px;stroke-linecap:round;"/></g></g><g id="Montgomery-Station-Group" serif:id="Montgomery Station Group"><circle cx="2134.42" cy="862.878" r="11.5" style="fill:#fff;stroke:#000;stroke-width:6.25px;stroke-linecap:round;"/><path d="M2293.614,957.572c-5.006,5.006 -13.136,5.006 -18.142,0l-85.627,-85.627c-5.006,-5.006 -5.006,-13.136 0,-18.142c5.006,-5.006 13.136,-5.006 18.142,-0l85.627,85.627c5.006,5.006 5.006,13.136 -0,18.142Z" style="fill:#fff;stroke:#000;stroke-width:6.25px;stroke-linecap:round;"/><path d="M2146.92,862.378l38,0" style="fill:none;stroke:#000;stroke-width:6.25px;stroke-linecap:round;"/><g transform="matrix(0.707107,0.707107,-0.707107,0.707107,-651.216075,-1583.37114)"><text x="3546.69px" y="-279.719px" style="font-family:'Futura-Medium', 'Futura', sans-serif;font-weight:500;font-size:29.167px;">Montgomer<tspan x="3702.621px " y="-279.719px ">y</tspan></text></g></g><g id="Japantown"><circle cx="1806.42" cy="815.878" r="11.5" style="fill:#fff;stroke:#132500;stroke-width:6.25px;stroke-linecap:round;"/><g transform="matrix(0.707107,0.707107,-0.707107,0.707107,-897.551032,-1276.017713)"><g transform="matrix(29.166667,0,0,29.166667,3358.63396,-423.394839)"></g><text x="3214.495px" y="-423.395px" style="font-family:'Futura-Medium', 'Futura', sans-serif;font-weight:500;font-size:29.167px;">Japant<tspan x="3303.092px 3320.068px 3342.641px " y="-423.395px -423.395px -423.395px ">own</tspan></text></g></g><g id="_19th---Judah" serif:id="19th &amp; Judah"><circle cx="962.42" cy="1159.878" r="11.5" style="fill:#fff;stroke:#000;stroke-width:6.25px;stroke-linecap:round;"/><g transform="matrix(0.707107,0.707107,-0.707107,0.707107,-811.629496,-617.45065)"><g transform="matrix(29.166667,0,0,29.166667,2476.852823,9.605161)"></g><text x="2300.514px" y="9.605px" style="font-family:'Futura-Medium', 'Futura', sans-serif;font-weight:500;font-size:29.167px;fill:#060606;">1<tspan x="2316.151px 2334.153px 2342.712px 2358.705px " y="9.605px 9.605px 9.605px 9.605px ">9th </tspan>&amp; Judah</text></g></g><g id="_19th---Taraval" serif:id="19th &amp; Taraval"><circle cx="961.42" cy="1539.878" r="11.5" style="fill:#fff;stroke:#000;stroke-width:6.25px;stroke-linecap:round;"/><g id="_19th---Taraval1" serif:id="19th &amp; Taraval" transform="matrix(0.707107,0.707107,-0.707107,0.707107,-633.100492,-466.457793)"><g transform="matrix(29.166667,0,0,29.166667,2513.63396,300.605161)"></g><text x="2318.425px" y="300.605px" style="font-family:'Futura-Medium', 'Futura', sans-serif;font-weight:500;font-size:29.167px;fill:#1d3800;">1<tspan x="2334.062px 2352.064px 2360.623px 2376.616px " y="300.605px 300.605px 300.605px 300.605px ">9th </tspan>&amp; T<tspan x="2428.783px 2446.271px 2456.981px 2474.726px 2488.882px 2506.371px " y="300.605px 300.605px 300.605px 300.605px 300.605px 300.605px ">araval</tspan></text></g></g><g id="Powell-Station-Group" serif:id="Powell Station Group"><circle cx="2054.42" cy="945.878" r="11.5" style="fill:#fff;stroke:#000;stroke-width:6.25px;stroke-linecap:round;"/><path d="M2053.92,1003.378l0,-43.142" style="fill:none;stroke:#000;stroke-width:6.25px;stroke-linecap:round;"/><path d="M2149.69,1100.648c-5.006,5.006 -13.136,5.006 -18.142,0l-85.627,-85.627c-5.006,-5.006 -5.006,-13.136 0,-18.142c5.006,-5.006 13.136,-5.006 18.142,-0l85.627,85.627c5.006,5.006 5.006,13.136 -0,18.142Z" style="fill:#fff;stroke:#000;stroke-width:6.25px;stroke-linecap:round;"/><g transform="matrix(0.707107,0.707107,-0.707107,0.707107,-523.988586,-1461.660462)"><text x="3463.386px" y="-65.286px" style="font-family:'Futura-Medium', 'Futura', sans-serif;font-weight:500;font-size:29.167px;">P<tspan x="3478.297px 3495.273px 3517.404px 3533.54px " y="-65.286px -65.286px -65.286px -65.286px ">owel</tspan>l</text></g></g><g id="Transit-Center" serif:id="Transit Center"><circle cx="2293.42" cy="1027.878" r="11.5" style="fill:#fff;stroke:#000;stroke-width:6.25px;stroke-linecap:round;"/><g transform="matrix(29.166667,0,0,29.166667,2496.10041,1037.431908)"></g><text x="2314.92px" y="1037.432px" style="font-family:'Futura-Medium', 'Futura', sans-serif;font-weight:500;font-size:29.167px;">T<tspan x="2327.993px 2338.703px 2356.192px " y="1037.432px 1037.432px 1037.432px ">ran</tspan>sit Cent<tspan x="2469.056px 2485.191px " y="1037.432px 1037.432px ">er</tspan></text></g><g id="_4th-and-king-station-group" serif:id="4th and king station group"><circle cx="2405.42" cy="1341.878" r="11.5" style="fill:#fff;stroke:#000;stroke-width:6.25px;stroke-linecap:round;"/><circle cx="2355.42" cy="1341.878" r="11.5" style="fill:#fff;stroke:#000;stroke-width:6.25px;stroke-linecap:round;"/><circle cx="2455.42" cy="1341.878" r="11.5" style="fill:#fff;stroke:#000;stroke-width:6.25px;stroke-linecap:round;"/><path d="M2443.973,1340.981l-27.053,0" style="fill:none;stroke:#000;stroke-width:6.25px;stroke-linecap:round;"/><path d="M2393.973,1340.981l-27.053,0" style="fill:none;stroke:#000;stroke-width:6.25px;stroke-linecap:round;"/><g transform="matrix(29.166667,0,0,29.166667,2622.836494,1347.431908)"></g><text x="2480.92px" y="1347.432px" style="font-family:'Futura-Medium', 'Futura', sans-serif;font-weight:500;font-size:29.167px;">4t<tspan x="2507.48px 2523.473px " y="1347.432px 1347.432px ">h </tspan>&amp; King</text></g><g id="Embarcadero"><path d="M2331.69,918.648c-5.006,5.006 -13.136,5.006 -18.142,0l-85.627,-85.627c-5.006,-5.006 -5.006,-13.136 0,-18.142c5.006,-5.006 13.136,-5.006 18.142,-0l85.627,85.627c5.006,5.006 5.006,13.136 -0,18.142Z" style="fill:#fff;stroke:#000;stroke-width:6.25px;stroke-linecap:round;"/><g transform="matrix(0.707107,0.707107,-0.707107,0.707107,-669.83487,-1618.421392)"><text x="3579.69px" y="-319.719px" style="font-family:'Futura-Medium', 'Futura', sans-serif;font-weight:500;font-size:29.167px;">Embar<tspan x="3664.883px 3678.783px " y="-319.719px -319.719px ">ca</tspan>der<tspan x="3740.548px " y="-319.719px ">o</tspan></text></g></g><g id="Civic-Center" serif:id="Civic Center"><path d="M2093.69,1156.648c-5.006,5.006 -13.136,5.006 -18.142,0l-85.627,-85.627c-5.006,-5.006 -5.006,-13.136 0,-18.142c5.006,-5.006 13.136,-5.006 18.142,-0l85.627,85.627c5.006,5.006 5.006,13.136 -0,18.142Z" style="fill:#fff;stroke:#000;stroke-width:6.25px;stroke-linecap:round;"/><g transform="matrix(0.707107,0.707107,-0.707107,0.707107,-558.063225,-1387.220382)"><text x="3356.492px" y="-69.198px" style="font-family:'Futura-Medium', 'Futura', sans-serif;font-weight:500;font-size:29.167px;">Civic Cent<tspan x="3489.807px 3505.942px " y="-69.198px -69.198px ">er</tspan></text></g></g><g id="Van-Ness" serif:id="Van Ness"><path d="M2022.885,1191.843c-5.006,5.006 -13.136,5.006 -18.142,0l-69.517,-69.517c-5.006,-5.006 -5.006,-13.136 0,-18.142c5.006,-5.006 13.136,-5.006 18.142,-0l69.517,69.517c5.006,5.006 5.006,13.136 -0,18.142Z" style="fill:#fff;stroke:#000;stroke-width:6.25px;stroke-linecap:round;"/><g transform="matrix(0.707107,0.707107,-0.707107,0.707107,-511.226176,-1343.625974)"><g transform="matrix(29.166667,0,0,29.166667,3452.555491,9.136384)"></g><text x="3327.287px" y="9.136px" style="font-family:'Futura-Medium', 'Futura', sans-serif;font-weight:500;font-size:29.167px;">V<tspan x="3345.317px 3362.805px " y="9.136px 9.136px ">an</tspan> N<tspan x="3412.75px 3428.886px " y="9.136px 9.136px ">es</tspan>s</text></g></g><g id="Castro"><path d="M1795.614,1408.572c-5.006,5.006 -13.136,5.006 -18.142,-0l-46.246,-46.246c-5.006,-5.006 -5.006,-13.136 -0,-18.142c5.006,-5.006 13.136,-5.006 18.142,0l46.246,46.246c5.006,5.006 5.006,13.136 0,18.142Z" style="fill:#fff;stroke:#000;stroke-width:6.25px;stroke-linecap:round;"/><g transform="matrix(0.707107,0.707107,-0.707107,0.707107,-473.313875,-1099.977741)"><g transform="matrix(29.166667,0,0,29.166667,3280.133653,176.724696)"></g><text x="3194.214px" y="176.725px" style="font-family:'Futura-Medium', 'Futura', sans-serif;font-weight:500;font-size:29.167px;">Castr<tspan x="3262.602px " y="176.725px ">o</tspan></text></g></g><g id="Forest-Hill" serif:id="Forest Hill"><path d="M1725.614,1480.572c-5.006,5.006 -13.136,5.006 -18.142,-0l-46.246,-46.246c-5.006,-5.006 -5.006,-13.136 -0,-18.142c5.006,-5.006 13.136,-5.006 18.142,0l46.246,46.246c5.006,5.006 5.006,13.136 0,18.142Z" style="fill:#fff;stroke:#000;stroke-width:6.25px;stroke-linecap:round;"/><g transform="matrix(0.707107,0.707107,-0.707107,0.707107,-444.318926,-1029.977741)"><g transform="matrix(29.166667,0,0,29.166667,3210.133653,246.724696)"></g><text x="3079.197px" y="246.725px" style="font-family:'Futura-Medium', 'Futura', sans-serif;font-weight:500;font-size:29.167px;">F<tspan x="3093.766px 3111.297px 3122.007px 3138.143px " y="246.725px 246.725px 246.725px 246.725px ">ores</tspan>t Hill</text></g></g><g id="West-Portal" serif:id="West Portal"><path d="M1642.614,1563.572c-5.006,5.006 -13.136,5.006 -18.142,-0l-46.246,-46.246c-5.006,-5.006 -5.006,-13.136 -0,-18.142c5.006,-5.006 13.136,-5.006 18.142,0l46.246,46.246c5.006,5.006 5.006,13.136 0,18.142Z" style="fill:#fff;stroke:#000;stroke-width:6.25px;stroke-linecap:round;"/><g transform="matrix(0.707107,0.707107,-0.707107,0.707107,-407.868132,-941.977741)"><g transform="matrix(29.166667,0,0,29.166667,3122.133653,334.724696)"></g><text x="2970.561px" y="334.725px" style="font-family:'Futura-Medium', 'Futura', sans-serif;font-weight:500;font-size:29.167px;">W<tspan x="2999.799px 3015.935px " y="334.725px 334.725px ">es</tspan>t P<tspan x="3059.656px 3077.187px 3089.15px 3097.382px 3114.87px " y="334.725px 334.725px 334.725px 334.725px 334.725px ">ortal</tspan></text></g></g><g id="Sloat---St.-Francis" serif:id="Sloat &amp; St. Francis"><path d="M1538.614,1667.572c-5.006,5.006 -13.136,5.006 -18.142,0l-26.246,-26.246c-5.006,-5.006 -5.006,-13.136 0,-18.142c5.006,-5.006 13.136,-5.006 18.142,-0l26.246,26.246c5.006,5.006 5.006,13.136 -0,18.142Z" style="fill:#fff;stroke:#000;stroke-width:6.25px;stroke-linecap:round;"/><g transform="matrix(29.166667,0,0,29.166667,1476.919583,1633.431908)"></g><text x="1235.127px" y="1633.432px" style="font-family:'Futura-Medium', 'Futura', sans-serif;font-weight:500;font-size:29.167px;">Sloat &amp; S<tspan x="1359.213px 1367.189px " y="1633.432px 1633.432px ">t.</tspan> F<tspan x="1399.73px 1410.44px 1427.929px " y="1633.432px 1633.432px 1633.432px ">ran</tspan>cis</text></g><g id="Stonestown"><path d="M1024.961,2187.378c0,7.08 -5.748,12.828 -12.828,12.828l-53.426,0c-7.08,0 -12.828,-5.748 -12.828,-12.828c0,-7.08 5.748,-12.828 12.828,-12.828l53.426,0c7.08,0 12.828,5.748 12.828,12.828Z" style="fill:#fff;stroke:#000;stroke-width:6.25px;stroke-linecap:round;"/><g transform="matrix(0.707107,0.707107,-0.707107,0.707107,-170.62322,-272.662987)"><text x="2360.052px" y="955.762px" style="font-family:'Futura-Medium', 'Futura', sans-serif;font-weight:500;font-size:29.167px;fill:#0e1c00;">S<tspan x="2377.555px 2385.73px 2403.261px " y="955.762px 955.762px 955.762px ">ton</tspan>est<tspan x="2455.4px 2472.375px 2494.948px " y="955.762px 955.762px 955.762px ">own</tspan></text></g></g><g id="Balboa-Park" serif:id="Balboa Park"><path d="M1788.961,2312.378c0,7.08 -5.748,12.828 -12.828,12.828l-78.426,0c-7.08,0 -12.828,-5.748 -12.828,-12.828c0,-7.08 5.748,-12.828 12.828,-12.828l78.426,0c7.08,0 12.828,5.748 12.828,12.828Z" style="fill:#fff;stroke:#000;stroke-width:6.25px;stroke-linecap:round;"/><g transform="matrix(29.166667,0,0,29.166667,1959.700483,2323.931908)"></g><text x="1797.86px" y="2323.932px" style="font-family:'Futura-Medium', 'Futura', sans-serif;font-weight:500;font-size:29.167px;fill:#0e1c00;">Balboa P<tspan x="1916.335px 1933.824px 1945.174px " y="2323.932px 2323.932px 2323.932px ">ark</tspan></text><circle cx="1663.42" cy="2350.878" r="11.5" style="fill:#fff;stroke:#000;stroke-width:6.25px;stroke-linecap:round;"/><path d="M1688.92,2321.378l-17.726,17.726" style="fill:none;stroke:#000;stroke-width:6.25px;stroke-linecap:round;"/></g><g id="SF-State" serif:id="SF State"><path id="SF-State1" serif:id="SF State" d="M1024.961,2290.378c0,7.08 -5.748,12.828 -12.828,12.828l-53.426,0c-7.08,0 -12.828,-5.748 -12.828,-12.828c0,-7.08 5.748,-12.828 12.828,-12.828l53.426,0c7.08,0 12.828,5.748 12.828,12.828Z" style="fill:#fff;stroke:#000;stroke-width:6.25px;stroke-linecap:round;"/><g transform="matrix(0.707107,0.707107,-0.707107,0.707107,-99.224771,-247.370094)"><g transform="matrix(29.166667,0,0,29.166667,2516.109573,1054.594014)"></g><text x="2407.689px" y="1054.594px" style="font-family:'Futura-Medium', 'Futura', sans-serif;font-weight:500;font-size:29.167px;fill:#0e1c00;">SF S<tspan x="2466.022px 2474.254px 2491.742px 2499.974px " y="1054.594px 1054.594px 1054.594px 1054.594px ">tate</tspan></text></g></g><g id="Daly-City" serif:id="Daly City"><path d="M1024.961,2561.378c0,7.08 -5.748,12.828 -12.828,12.828l-53.426,0c-7.08,0 -12.828,-5.748 -12.828,-12.828c0,-7.08 5.748,-12.828 12.828,-12.828l53.426,0c7.08,0 12.828,5.748 12.828,12.828Z" style="fill:#fff;stroke:#000;stroke-width:6.25px;stroke-linecap:round;"/><g transform="matrix(0.707107,0.707107,-0.707107,0.707107,92.246225,-168.370094)"><text x="2393.921px" y="1325.22px" style="font-family:'Futura-Medium', 'Futura', sans-serif;font-weight:500;font-size:29.167px;fill:#0e1c00;">Dal<tspan x="2440.106px 2455.957px " y="1325.22px 1325.22px ">y </tspan>City</text></g></g><g id="Church-Station-Group" serif:id="Church Station Group"><g transform="matrix(0.707107,0.707107,-0.707107,0.707107,-421.823543,-1196.286399)"><g transform="matrix(29.166667,0,0,29.166667,3297.68286,190.724696)"></g><text x="3204.059px" y="190.725px" style="font-family:'Futura-Medium', 'Futura', sans-serif;font-weight:500;font-size:29.167px;">Chur<tspan x="3267.035px 3281.69px " y="190.725px 190.725px ">ch</tspan></text></g><path d="M1819.248,1286.064l42.366,42.366c5.006,5.006 5.006,13.136 0,18.142c-5.006,5.006 -13.136,5.006 -18.142,-0l-46.246,-46.246c-2.952,-2.952 -4.163,-6.989 -3.634,-10.832l0,-23.817c-0,-7.08 5.748,-12.828 12.828,-12.828c7.08,-0 12.828,5.748 12.828,12.828l0,20.387Z" style="fill:#fff;stroke:#000;stroke-width:6.25px;stroke-linecap:round;"/></g><g><circle cx="746.878" cy="304.063" r="85" style="fill:#abd380;"/><path d="M721.213,355.444l0,-94.238l14.16,0c6.307,0 11.332,0.488 15.076,1.465c3.784,0.977 6.978,2.625 9.583,4.944c2.645,2.401 4.74,5.391 6.287,8.972c1.587,3.621 2.38,7.284 2.38,10.986c0,6.755 -2.584,12.472 -7.751,17.151c5.005,1.709 8.952,4.7 11.841,8.972c2.93,4.232 4.395,9.155 4.395,14.771c0,7.365 -2.604,13.59 -7.812,18.677c-3.133,3.133 -6.653,5.31 -10.559,6.531c-4.272,1.18 -9.623,1.77 -16.052,1.77l-21.545,0Zm14.221,-53.772l4.456,0c5.29,0 9.165,-1.17 11.627,-3.51c2.462,-2.34 3.693,-5.788 3.693,-10.345c0,-4.435 -1.261,-7.802 -3.784,-10.101c-2.523,-2.299 -6.185,-3.448 -10.986,-3.448l-5.005,0l0,27.405Zm0,40.405l8.789,0c6.429,0 11.149,-1.261 14.16,-3.784c3.174,-2.726 4.761,-6.185 4.761,-10.376c0,-4.069 -1.526,-7.487 -4.578,-10.254c-2.97,-2.726 -8.28,-4.089 -15.93,-4.089l-7.202,0l0,28.503Z" style="fill:#fff;fill-rule:nonzero;"/></g><g><circle cx="986.878" cy="304.063" r="85" style="fill:#dc8325;"/><path d="M1001.221,261.206l0,60.974c0,7.284 -0.509,12.716 -1.526,16.296c-1.017,4.069 -2.747,7.507 -5.188,10.315c-4.761,5.575 -11.068,8.362 -18.921,8.362c-5.941,0 -11.495,-1.546 -16.663,-4.639l6.958,-12.146c3.459,2.319 6.694,3.479 9.705,3.479c4.232,0 7.161,-1.607 8.789,-4.822c1.709,-3.215 2.563,-8.83 2.563,-16.846l0,-60.974l14.282,0Z" style="fill:#fff;fill-rule:nonzero;"/></g><g><circle cx="1234.878" cy="304.063" r="85" style="fill:#5a97ac;"/><path d="M1218.978,298.804l36.682,-37.598l18.982,0l-42.603,42.664l42.847,51.575l-19.043,0l-33.936,-41.931l-2.93,2.93l0,39.001l-14.221,0l0,-94.238l14.221,0l0,37.598Z" style="fill:#fff;fill-rule:nonzero;"/></g><g><circle cx="1474.878" cy="304.063" r="85" style="fill:#752679;"/><path d="M1472.681,261.206l0,80.872l27.71,0l0,13.367l-41.931,0l0,-94.238l14.221,0Z" style="fill:#fff;fill-rule:nonzero;"/></g><g><circle cx="1725.878" cy="304.063" r="85" style="fill:#14895d;"/><path d="M1673.784,355.77l19.836,-101.318l32.349,73.242l33.508,-73.242l17.822,101.318l-14.587,0l-9.094,-56.885l-27.893,61.218l-27.1,-61.279l-10.132,56.946l-14.709,0Z" style="fill:#fff;fill-rule:nonzero;"/></g><g><circle cx="1965.878" cy="304.063" r="85" style="fill:#004a79;"/><path d="M1924.405,355.444l0,-100.647l68.726,71.899l0,-65.491l14.221,0l0,99.976l-68.726,-71.716l0,65.979l-14.221,0Z" style="fill:#fff;"/></g><g><circle cx="2213.878" cy="304.063" r="85" style="fill:#c61a43;"/><path d="M2221.019,274.573l0,80.872l-14.221,0l0,-80.872l-21.667,0l0,-13.367l57.495,0l0,13.367l-21.606,0Z" style="fill:#fff;fill-rule:nonzero;"/></g><g transform="matrix(50,0,0,50,813.791527,453.180668)"></g><text x="665.964px" y="453.181px" style="font-family:'Futura-Medium', 'Futura', sans-serif;font-weight:500;font-size:50px;">Gear<tspan x="786.619px " y="453.181px ">y</tspan></text><g transform="matrix(50,0,0,50,1063.126976,453.180668)"></g><text x="902.629px" y="453.181px" style="font-family:'Futura-Medium', 'Futura', sans-serif;font-weight:500;font-size:50px;">Chur<tspan x="1010.588px 1035.71px " y="453.181px 453.181px ">ch</tspan></text><g transform="matrix(50,0,0,50,1339.171898,453.180668)"></g><text x="1136.584px" y="453.181px" style="font-family:'Futura-Medium', 'Futura', sans-serif;font-weight:500;font-size:50px;">Ingleside</text><g transform="matrix(50,0,0,50,1559.618187,453.180668)"></g><text x="1392.138px" y="453.181px" style="font-family:'Futura-Medium', 'Futura', sans-serif;font-weight:500;font-size:50px;">T<tspan x="1414.159px 1444.14px 1462.499px 1492.919px 1517.187px 1547.167px " y="453.181px 453.181px 453.181px 453.181px 453.181px 453.181px ">araval</tspan></text><g transform="matrix(50,0,0,50,1867.551781,453.180668)"></g><text x="1586.204px" y="453.181px" style="font-family:'Futura-Medium', 'Futura', sans-serif;font-weight:500;font-size:50px;">Ocean V<tspan x="1789.5px 1801.951px 1828.855px " y="453.181px 453.181px 453.181px ">iew</tspan></text><g transform="matrix(50,0,0,50,2031.443871,453.180668)"></g><text x="1896.312px" y="453.181px" style="font-family:'Futura-Medium', 'Futura', sans-serif;font-weight:500;font-size:50px;">Judah</text><g transform="matrix(50,0,0,50,2298.595726,453.180668)"></g><text x="2127.16px" y="453.181px" style="font-family:'Futura-Medium', 'Futura', sans-serif;font-weight:500;font-size:50px;">Thir<tspan x="2209.509px 2239.489px 2254.919px 2284.924px " y="453.181px 453.181px 453.181px 453.181px ">d St</tspan></text></svg>